<?xml version="1.0" encoding="utf-8"?>
<!-- Generator: Adobe Illustrator 20.1.0, SVG Export Plug-In . SVG Version: 6.00 Build 0)  -->
<svg version="1.1" id="Layer_1" xmlns="http://www.w3.org/2000/svg" xmlns:xlink="http://www.w3.org/1999/xlink" x="0px" y="0px"
	 viewBox="0 0 516.8 398.9" style="enable-background:new 0 0 516.8 398.9;" xml:space="preserve">
<style type="text/css">
	.st0{fill:#FFFFFF;}
</style>
<g id="Envelope_icon">
	<path class="st0" d="M401.4,316.5H119.6c-13.7,0-29-15.3-29-29V105.1c0-13.7,14.9-20.7,28.7-20.7h282.2c13.7,0,20.7,7,20.7,20.7
		v182.4C422.2,301.2,415.2,316.5,401.4,316.5z M400.3,299.9L299.9,209c-0.1-0.1-0.1-0.1-0.2-0.2l-37.9,31.8c-1.6,1.4-3.5,2-5.4,2
		s-3.9-0.7-5.4-2l-37.2-31.3l-97.2,89.6c1.1,0.5,2.1,0.9,3,0.9h280.7V299.9z M107.2,285.2l93.8-86.6l-93.8-78.9V285.2z M401.4,101
		h-4.1H119.6c-2.4,0-5.7-0.1-8.3,0.5l145.1,121.9L402.5,101C402.1,101,401.9,101,401.4,101z M405.6,120.1l-93.1,78.1l93.1,84.2
		V120.1z"/>
</g>
</svg>
