<?xml version="1.0" encoding="utf-8"?>
<!-- Generator: Adobe Illustrator 20.1.0, SVG Export Plug-In . SVG Version: 6.00 Build 0)  -->
<svg version="1.1" id="Layer_1" xmlns="http://www.w3.org/2000/svg" xmlns:xlink="http://www.w3.org/1999/xlink" x="0px" y="0px"
	 viewBox="0 0 333 330.8" style="enable-background:new 0 0 333 330.8;" xml:space="preserve">
<style type="text/css">
	.st0{fill:#FFFFFF;}
</style>
<g id="Phone_icon">
	<path class="st0" d="M225.4,263.5l-0.3,0c-34.3-1.1-74.5-33.8-102.2-61.1S62,135.6,60.9,102C60.5,90,90,68.9,90.3,68.7
		c6.9-4.8,16.3-3.8,20.1,1.5c2.3,3.1,24.5,36.3,27,40.1c2.6,4,2.2,10-1,16c-1.7,3.2-7.3,12.8-10,17.5c3,4.2,10.6,14,26.2,29.3
		c15.6,15.4,25.5,22.9,29.8,25.8c4.8-2.7,14.6-8.2,17.8-9.9c5.9-3.1,12-3.5,16.1-1c4.1,2.5,37.7,24.5,40.8,26.6
		c5.1,3.5,7.1,12.1,1.5,19.9C258.5,234.8,237.4,263.5,225.4,263.5z M100.2,75.3c-0.9,0-2.4,0.3-4.2,1.4
		c-9.1,6.3-24.7,20.6-25.2,24.8c1,30.5,32.7,67.9,59.1,93.9c26.4,26,64.4,57.2,95.3,58.2l0,0c4.3-0.5,18.8-15.8,25.2-24.8
		c2.3-3.3,1.4-5.8,0.9-6.2c-2.6-1.8-36.2-23.8-40.3-26.2c-0.1-0.1-0.5-0.2-1.1-0.2c-1.4,0-3.3,0.5-5.1,1.5
		c-4.1,2.1-20,11.1-20.2,11.2l-2.5,1.4l-2.5-1.4c-0.5-0.3-11.9-7-34.1-28.8c-22.2-21.9-29-33.1-29.3-33.6l-1.5-2.5l1.4-2.5
		c0.1-0.2,9.2-15.8,11.4-19.9c1.8-3.4,1.6-5.7,1.4-6.1c-2.3-3.6-24.5-36.7-26.7-39.7C102.2,75.8,101.5,75.3,100.2,75.3z"/>
</g>
</svg>
