<svg xmlns="http://www.w3.org/2000/svg" xmlns:xlink="http://www.w3.org/1999/xlink" preserveAspectRatio="xMidYMid" width="490.853" height="490.475" viewBox="0 0 40.25 40.219">
  <defs>
    <style>
      .cls-1 {
        fill: #000;
        fill-rule: evenodd;
      }
    </style>
  </defs>
  <path d="M32.914,40.217 L32.857,40.216 C25.988,39.997 17.946,33.346 12.406,27.805 C6.866,22.264 0.218,14.222 -0.001,7.378 C-0.079,4.942 5.828,0.660 5.888,0.618 C7.275,-0.348 9.147,-0.155 9.919,0.914 C10.378,1.550 14.831,8.302 15.321,9.074 C15.841,9.893 15.769,11.108 15.127,12.323 C14.788,12.969 13.674,14.929 13.127,15.888 C13.725,16.737 15.258,18.738 18.365,21.845 C21.493,24.973 23.477,26.494 24.321,27.087 C25.280,26.539 27.240,25.424 27.889,25.084 C29.067,24.462 30.298,24.379 31.120,24.882 C31.944,25.386 38.668,29.857 39.282,30.288 C40.293,30.996 40.697,32.741 39.588,34.325 C39.547,34.384 35.320,40.217 32.914,40.217 ZM7.867,1.964 C7.680,1.964 7.382,2.015 7.032,2.258 C5.208,3.533 2.091,6.452 1.997,7.307 C2.195,13.505 8.536,21.105 13.820,26.391 C19.105,31.676 26.705,38.019 32.895,38.216 L32.902,38.218 C33.755,38.122 36.673,35.005 37.949,33.179 C38.415,32.513 38.225,32.002 38.132,31.924 C37.621,31.566 30.885,27.082 30.077,26.589 C30.054,26.574 29.978,26.550 29.848,26.550 C29.561,26.550 29.186,26.660 28.820,26.854 C27.998,27.285 24.811,29.110 24.779,29.129 L24.276,29.417 L23.775,29.123 C23.681,29.067 21.394,27.703 16.951,23.260 C12.507,18.816 11.145,16.529 11.090,16.434 L10.797,15.934 L11.084,15.431 C11.103,15.399 12.928,12.211 13.356,11.392 C13.722,10.699 13.685,10.230 13.633,10.146 C13.168,9.413 8.726,2.678 8.298,2.085 C8.277,2.062 8.136,1.964 7.867,1.964 Z" class="cls-1"/>
</svg>
